<?xml version="1.0" encoding="UTF-8"?>
<svg xmlns="http://www.w3.org/2000/svg" viewBox="0 0 419.62 190.41">
  <g fill="#fff">
    <path d="M18.820059999999998 15.772000000000006C8.72662 15.772000000000006 0.5257 24.60376000000001 0.5257 34.06636C0.5257 43.634100000000004 6.93924 50.04764000000001 17.24296 52.045300000000005V52.78128H2.41822V89.47514000000001H57.19616C78.43444 89.47514000000001 82.32462 58.248560000000005 61.19148 53.51726000000001V52.78128H74.01856V15.772000000000006Z"/>
    <path d="M116.07455999999999 13.248640000000009C94.41572 13.248640000000009 76.85734 30.80702000000001 76.85734 52.465860000000006C76.85734 74.1247 94.41572 91.68308 116.07455999999999 91.68308C137.7334 91.68308 155.29178 74.1247 155.29178 52.465860000000006C155.29178 30.80702000000001 137.7334 13.248640000000009 116.07455999999999 13.248640000000009Z"/>
    <path d="M169.38054 25.12946000000001C154.24038 40.26962 154.24038 64.76724 169.38054 79.90740000000001C184.52069999999998 95.04756 209.01832 95.04756 224.15848 79.90740000000001L196.71694 52.465860000000006L224.15848 25.12946000000001C209.01832 9.9893 184.52069999999998 9.9893 169.38054 25.12946000000001Z"/>
    <path d="M227.20754 15.772000000000006V89.37H265.4785V15.772000000000006Z"/>
    <path d="M265.68878 89.37H358.63254L312.16066 10.620140000000006Z"/>
    <path d="M395.3264 52.571000000000005V15.772000000000006H358.5274V89.37H415.72356V52.571000000000005Z"/>
    <path d="M2.73364 141.73296C2.73364 162.02498 19.24062 178.53196 39.53264 178.53196C59.82466 178.53196 76.33164 162.02498 76.33164 141.73296V103.25172H2.73364Z"/>
    <path d="M117.44138000000001 103.462H82.21948V177.06H117.7568V163.07638C134.15864 163.07638 147.51142 149.61846 147.51142 133.32176C147.51142 116.70964000000001 133.94836 103.462 117.44138000000001 103.462Z"/>
    <path d="M162.86186 155.82172C156.44832 155.82172 151.08618 160.97358 151.08618 167.49226C151.08618 173.3801 156.44832 178.53196 162.86186 178.53196C169.69596 178.53196 175.0581 173.3801 175.0581 167.49226C175.0581 160.97358 169.69596 155.82172 162.86186 155.82172Z"/>
  </g>
</svg>