<svg width="128" height="32" viewBox="0 0 128 32" fill="none" xmlns="http://www.w3.org/2000/svg">
<g clip-path="url(#clip0_327_677)">
<path d="M103.542 29.8305H102.905L102.913 25.7824H103.538V26.4922C103.754 25.9931 104.122 25.7417 104.647 25.7417C104.744 25.7417 104.818 25.7454 104.87 25.7565V26.3813C104.759 26.3443 104.643 26.3258 104.524 26.3258C104.241 26.3258 104.003 26.4552 103.817 26.7177C103.631 26.9802 103.534 27.2796 103.534 27.6197V29.8305H103.542Z" fill="#E6E6E6"/>
<path d="M109.124 27.8159C109.124 28.4185 108.953 28.9138 108.611 29.3094C108.268 29.705 107.796 29.9009 107.196 29.9009C106.597 29.9009 106.151 29.705 105.808 29.3131C105.47 28.9212 105.298 28.4295 105.298 27.8306C105.298 27.2317 105.473 26.729 105.823 26.326C106.173 25.923 106.631 25.7234 107.193 25.7234C107.81 25.7234 108.283 25.9193 108.618 26.3149C108.953 26.7105 109.12 27.2096 109.12 27.8159H109.124ZM105.953 27.8233C105.953 28.2447 106.065 28.6033 106.292 28.8991C106.519 29.1948 106.817 29.3427 107.193 29.3427C107.598 29.3427 107.915 29.1985 108.134 28.9065C108.354 28.6181 108.465 28.2558 108.465 27.8233C108.465 27.3907 108.361 27.0062 108.153 26.7179C107.944 26.4295 107.624 26.2816 107.196 26.2816C106.809 26.2816 106.508 26.4295 106.288 26.729C106.069 27.0284 105.957 27.3907 105.957 27.8233H105.953Z" fill="#E6E6E6"/>
<path d="M113.642 27.8159C113.642 28.4185 113.471 28.9138 113.129 29.3094C112.786 29.705 112.314 29.9009 111.714 29.9009C111.115 29.9009 110.669 29.705 110.326 29.3131C109.988 28.9212 109.816 28.4295 109.816 27.8306C109.816 27.2317 109.991 26.729 110.341 26.326C110.691 25.923 111.149 25.7234 111.711 25.7234C112.328 25.7234 112.801 25.9193 113.136 26.3149C113.471 26.7105 113.638 27.2096 113.638 27.8159H113.642ZM110.475 27.8233C110.475 28.2447 110.587 28.6033 110.814 28.8991C111.041 29.1948 111.339 29.3427 111.714 29.3427C112.12 29.3427 112.436 29.1985 112.656 28.9065C112.876 28.6181 112.987 28.2558 112.987 27.8233C112.987 27.3907 112.883 27.0062 112.675 26.7179C112.466 26.4295 112.146 26.2816 111.718 26.2816C111.331 26.2816 111.03 26.4295 110.81 26.729C110.59 27.0284 110.479 27.3907 110.479 27.8233H110.475Z" fill="#E6E6E6"/>
<path d="M116.463 26.2926H115.562V29.8306H114.926V26.2926H114.226V25.7824H114.926V25.4054C114.926 25.0098 115.03 24.6992 115.242 24.47C115.455 24.2408 115.749 24.1262 116.124 24.1262C116.255 24.1262 116.385 24.1447 116.519 24.1817V24.7584C116.392 24.7177 116.266 24.6956 116.151 24.6956C115.979 24.6956 115.838 24.7547 115.73 24.873C115.618 24.9913 115.566 25.1725 115.566 25.4165V25.7824H116.467V26.2926H116.463Z" fill="#E6E6E6"/>
<path d="M117.862 24.215C117.944 24.2963 117.981 24.3924 117.981 24.5107C117.981 24.629 117.941 24.7252 117.862 24.8028C117.781 24.8804 117.684 24.9174 117.565 24.9174C117.446 24.9174 117.349 24.8804 117.271 24.8028C117.192 24.7252 117.155 24.629 117.155 24.5107C117.155 24.3924 117.192 24.2963 117.271 24.215C117.349 24.1336 117.446 24.0967 117.565 24.0967C117.684 24.0967 117.781 24.1373 117.862 24.215ZM117.885 29.8306H117.248V25.7825H117.885V29.8306Z" fill="#E6E6E6"/>
<path d="M122.306 29.8307H121.67V27.2096C121.67 26.9101 121.591 26.6846 121.439 26.5256C121.286 26.3704 121.085 26.289 120.84 26.289C120.534 26.289 120.27 26.4073 120.047 26.6402C119.824 26.8731 119.712 27.1985 119.712 27.6162V29.827H119.087V25.7788H119.712V26.4813C119.954 25.9748 120.382 25.7234 121 25.7234C121.398 25.7234 121.711 25.8417 121.949 26.082C122.187 26.3223 122.302 26.6402 122.302 27.0395V29.827L122.306 29.8307Z" fill="#E6E6E6"/>
<path d="M126.72 29.5017C126.72 30.1191 126.549 30.5849 126.206 30.8954C125.864 31.206 125.421 31.3613 124.881 31.3613C124.386 31.3613 123.966 31.2799 123.62 31.1136V30.4814C123.962 30.6773 124.364 30.7771 124.826 30.7771C125.216 30.7771 125.525 30.6736 125.749 30.4666C125.976 30.2596 126.087 29.9342 126.087 29.4906V29.0359C125.819 29.4943 125.421 29.7235 124.889 29.7235C124.424 29.7235 124.025 29.5535 123.694 29.2133C123.363 28.8732 123.199 28.4 123.199 27.79C123.199 27.18 123.352 26.692 123.657 26.3038C123.962 25.9157 124.36 25.7197 124.855 25.7197C125.414 25.7197 125.823 25.9637 126.087 26.448V25.7789H126.724V29.5017H126.72ZM123.858 27.7752C123.858 28.2263 123.97 28.5738 124.197 28.8104C124.424 29.047 124.677 29.1653 124.96 29.1653C125.242 29.1653 125.514 29.0507 125.745 28.8252C125.972 28.5996 126.087 28.2632 126.087 27.8159C126.087 27.2983 125.976 26.9175 125.756 26.6661C125.536 26.4148 125.283 26.2891 124.993 26.2891C124.643 26.2891 124.368 26.4258 124.167 26.6994C123.962 26.973 123.862 27.3316 123.862 27.7752H123.858Z" fill="#E6E6E6"/>
<path d="M33.9557 17.0429H37.9378C38.2243 18.2148 39.3408 18.847 41.0304 18.847C42.8168 18.847 44.0598 18.0226 44.0598 16.9172C44.0598 15.9671 43.5499 15.4939 41.4472 15.0502L38.7714 14.5105C35.742 13.9079 34.246 12.3589 34.246 9.91889C34.246 6.84673 36.8287 4.9502 41.0006 4.9502C45.1725 4.9502 47.4687 6.62861 47.599 9.5418H43.8067C43.6169 8.40314 42.5637 7.76727 40.9709 7.76727C39.378 7.76727 38.1648 8.43271 38.1648 9.66749C38.1648 10.7137 38.8012 11.1537 40.7141 11.5345L43.3899 12.0742C46.5123 12.6768 48.0754 14.163 48.0754 16.5364C48.0754 19.701 45.3363 21.6641 41.0006 21.6641C36.665 21.6641 34.179 19.9561 33.9557 17.0429Z" fill="#E6E6E6"/>
<path d="M61.0749 28.9026V18.9764H60.9148C60.0552 20.7509 58.239 21.6677 56.4229 21.6677C52.4408 21.6677 49.858 18.407 49.858 13.8154V12.8986C49.858 8.02232 52.4408 4.95386 56.4229 4.95386C58.3023 4.95386 60.2152 5.96682 61.0749 7.83378L61.488 8.59535L61.5847 8.5325L61.3949 8.05559C61.1716 7.39014 61.0749 6.91693 61.0749 6.3476V5.39749H64.9304V28.9063H61.0749V28.9026ZM61.0116 14.1629V12.455C61.0116 9.66746 59.482 7.83378 57.3458 7.83378C55.3399 7.83378 53.7136 9.76358 53.7136 12.7729V13.8487C53.7136 16.8876 55.3064 18.8174 57.2826 18.8174C59.4485 18.8174 61.0116 16.9504 61.0116 14.1629Z" fill="#E6E6E6"/>
<path d="M68.343 14.7027V5.3938H72.2321V14.858C72.2321 17.3904 73.1885 18.7841 75.0046 18.7841C77.0106 18.7841 78.7337 17.1686 78.7337 14.6066V5.3938H82.5892V21.2241H78.7337V20.6548C78.7672 20.115 78.8937 19.6418 79.1468 19.0392L79.3068 18.7545L79.2435 18.6917L78.7337 19.3572C77.7437 20.7509 76.0876 21.6677 74.2082 21.6677C70.4159 21.701 68.343 19.2315 68.343 14.7027Z" fill="#E6E6E6"/>
<path d="M85.0084 17.139C85.0084 14.004 87.2711 12.6768 90.4902 12.0742L94.4723 11.4088C95.0157 11.3126 95.3022 11.028 95.3022 10.6176V10.4291C95.3022 9.19428 94.1225 8.2109 92.4664 8.2109C90.9368 8.2109 89.7571 8.97247 89.3738 10.2036H85.548C85.8345 7.29036 88.5439 4.9502 92.5892 4.9502C96.6346 4.9502 99.3439 7.0057 99.3439 10.3625V21.2204H95.7414V20.555C95.7414 19.9524 95.8679 19.4792 96.1247 18.847L96.348 18.3405L96.2847 18.3072L95.7451 19.1612C94.6286 20.9358 92.3362 21.6604 90.2967 21.6604C87.1743 21.6604 85.0046 19.7601 85.0046 17.1316L85.0084 17.139ZM95.3357 15.7453V13.7822L91.3537 14.5438C89.6975 14.8617 88.9011 15.4939 88.9011 16.8248C88.9011 17.9634 89.9841 18.7546 91.4504 18.7546C93.4601 18.7546 95.3395 17.5198 95.3395 15.7453H95.3357Z" fill="#E6E6E6"/>
<path d="M102.727 21.2241V5.39379H106.616V5.92985C106.616 6.62488 106.489 7.16463 106.232 7.85965L106.072 8.27002L106.169 8.33286L106.616 7.63784C107.155 6.65445 108.082 5.80046 109.132 5.3901C109.671 5.16828 110.278 5.00931 110.948 4.97974H111.904V8.46226L110.278 8.42898C107.762 8.39941 106.612 10.5178 106.612 12.9245V21.2167H102.723L102.727 21.2241Z" fill="#E6E6E6"/>
<path d="M112.608 13.7822V12.7692C112.608 8.27375 115.827 4.97977 120.289 4.9502C124.848 4.97977 128 8.17763 128 12.7692V14.0669H116.497V14.3515C116.497 16.8211 117.993 18.7842 120.289 18.7842C121.978 18.7842 123.285 17.7379 123.858 15.871H127.747C127.014 19.4792 124.178 21.6641 120.289 21.6641C115.7 21.6641 112.608 18.4662 112.608 13.7822ZM124.048 11.5973C123.761 9.31628 122.328 7.83011 120.319 7.83011C118.309 7.83011 116.846 9.28671 116.526 11.5973H124.048Z" fill="#E6E6E6"/>
<path d="M17.9417 0L32.3442 21.7491H26.1032L14.4583 4.16645L6.24481 16.566H0L10.9787 0H17.9417Z" fill="#C4FF47"/>
<path d="M17.9789 21.749H6.2522V16.5659H14.5439L17.9789 21.749Z" fill="#C4FF47"/>
</g>
<defs>
<clipPath id="clip0_327_677">
<rect width="128" height="31.3612" fill="white"/>
</clipPath>
</defs>
</svg>
